<svg width="118" height="86" viewBox="0 0 118 86" fill="none" xmlns="http://www.w3.org/2000/svg">
<path d="M53.7381 0.0769369L17.8772 60.9628H4.78507C-1.13483 59.5972 -0.33792 50.91 0.800523 46.7371L25.277 6.90526C28.92 0.532159 34.7641 -0.302414 37.2307 0.0769369H53.7381Z" fill="#F0F3BD"/>
<path d="M43.4921 22.269L35.523 34.7876L60.5688 78.6026C64.6671 84.0653 69.1071 85.8103 70.8147 86H90.1683L57.1534 28.5283C53.5104 21.7 46.528 21.5103 43.4921 22.269Z" fill="#F0F3BD"/>
<path d="M49.1843 63.8079H4.78507L12.7542 78.6026C15.0311 82.6996 19.3951 85.2413 21.2925 86H49.1843C56.015 82.8134 56.2047 76.3265 55.4458 73.4814L49.1843 63.8079Z" fill="#F0F3BD"/>
<path d="M60.5688 30.8044L67.9686 43.892H98.7066L104.968 30.8044C104.057 25.7969 98.5168 23.0277 95.8605 22.269H69.6763C65.1225 22.7242 61.7072 28.1489 60.5688 30.8044Z" fill="#F0F3BD"/>
<path d="M107.245 33.0805L85.0453 72.3434L91.3067 83.7239C96.3158 87.3657 101.742 84.4826 103.83 82.5858L116.352 62.1009C118.629 56.6382 118.06 52.6171 117.491 51.2894L107.245 33.0805Z" fill="#F0F3BD"/>
</svg>
